<svg width="100" height="100" viewBox="0 0 100 100" fill="none" xmlns="http://www.w3.org/2000/svg">
<rect width="100" height="100" rx="50" fill="#191919"/>
<path d="M34.8164 46V37.4688H37.6055C38.5312 37.4688 39.2266 37.6602 39.6914 38.043C40.1602 38.4258 40.3945 38.9922 40.3945 39.7422C40.3945 40.1406 40.2812 40.4941 40.0547 40.8027C39.8281 41.1074 39.5195 41.3438 39.1289 41.5117C39.5898 41.6406 39.9531 41.8867 40.2188 42.25C40.4883 42.6094 40.623 43.0391 40.623 43.5391C40.623 44.3047 40.375 44.9062 39.8789 45.3438C39.3828 45.7812 38.6816 46 37.7754 46H34.8164ZM35.9414 42.0098V45.0801H37.7988C38.3223 45.0801 38.7344 44.9453 39.0352 44.6758C39.3398 44.4023 39.4922 44.0273 39.4922 43.5508C39.4922 42.5234 38.9336 42.0098 37.8164 42.0098H35.9414ZM35.9414 41.1074H37.6406C38.1328 41.1074 38.5254 40.9844 38.8184 40.7383C39.1152 40.4922 39.2637 40.1582 39.2637 39.7363C39.2637 39.2676 39.127 38.9277 38.8535 38.7168C38.5801 38.502 38.1641 38.3945 37.6055 38.3945H35.9414V41.1074ZM48.1152 42.0566H44.418V45.0801H48.7129V46H43.293V37.4688H48.6543V38.3945H44.418V41.1367H48.1152V42.0566ZM53.627 42.1973C52.6621 41.9199 51.959 41.5801 51.5176 41.1777C51.0801 40.7715 50.8613 40.2715 50.8613 39.6777C50.8613 39.0059 51.1289 38.4512 51.6641 38.0137C52.2031 37.5723 52.9023 37.3516 53.7617 37.3516C54.3477 37.3516 54.8691 37.4648 55.3262 37.6914C55.7871 37.918 56.1426 38.2305 56.3926 38.6289C56.6465 39.0273 56.7734 39.4629 56.7734 39.9355H55.6426C55.6426 39.4199 55.4785 39.0156 55.1504 38.7227C54.8223 38.4258 54.3594 38.2773 53.7617 38.2773C53.207 38.2773 52.7734 38.4004 52.4609 38.6465C52.1523 38.8887 51.998 39.2266 51.998 39.6602C51.998 40.0078 52.1445 40.3027 52.4375 40.5449C52.7344 40.7832 53.2363 41.002 53.9434 41.2012C54.6543 41.4004 55.209 41.6211 55.6074 41.8633C56.0098 42.1016 56.3066 42.3809 56.498 42.7012C56.6934 43.0215 56.791 43.3984 56.791 43.832C56.791 44.5234 56.5215 45.0781 55.9824 45.4961C55.4434 45.9102 54.7227 46.1172 53.8203 46.1172C53.2344 46.1172 52.6875 46.0059 52.1797 45.7832C51.6719 45.5566 51.2793 45.248 51.002 44.8574C50.7285 44.4668 50.5918 44.0234 50.5918 43.5273H51.7227C51.7227 44.043 51.9121 44.4512 52.291 44.752C52.6738 45.0488 53.1836 45.1973 53.8203 45.1973C54.4141 45.1973 54.8691 45.0762 55.1855 44.834C55.502 44.5918 55.6602 44.2617 55.6602 43.8438C55.6602 43.4258 55.5137 43.1035 55.2207 42.877C54.9277 42.6465 54.3965 42.4199 53.627 42.1973ZM65.1328 38.3945H62.3906V46H61.2715V38.3945H58.5352V37.4688H65.1328V38.3945ZM30.4668 56.1973C29.502 55.9199 28.7988 55.5801 28.3574 55.1777C27.9199 54.7715 27.7012 54.2715 27.7012 53.6777C27.7012 53.0059 27.9688 52.4512 28.5039 52.0137C29.043 51.5723 29.7422 51.3516 30.6016 51.3516C31.1875 51.3516 31.709 51.4648 32.166 51.6914C32.627 51.918 32.9824 52.2305 33.2324 52.6289C33.4863 53.0273 33.6133 53.4629 33.6133 53.9355H32.4824C32.4824 53.4199 32.3184 53.0156 31.9902 52.7227C31.6621 52.4258 31.1992 52.2773 30.6016 52.2773C30.0469 52.2773 29.6133 52.4004 29.3008 52.6465C28.9922 52.8887 28.8379 53.2266 28.8379 53.6602C28.8379 54.0078 28.9844 54.3027 29.2773 54.5449C29.5742 54.7832 30.0762 55.002 30.7832 55.2012C31.4941 55.4004 32.0488 55.6211 32.4473 55.8633C32.8496 56.1016 33.1465 56.3809 33.3379 56.7012C33.5332 57.0215 33.6309 57.3984 33.6309 57.832C33.6309 58.5234 33.3613 59.0781 32.8223 59.4961C32.2832 59.9102 31.5625 60.1172 30.6602 60.1172C30.0742 60.1172 29.5273 60.0059 29.0195 59.7832C28.5117 59.5566 28.1191 59.248 27.8418 58.8574C27.5684 58.4668 27.4316 58.0234 27.4316 57.5273H28.5625C28.5625 58.043 28.752 58.4512 29.1309 58.752C29.5137 59.0488 30.0234 59.1973 30.6602 59.1973C31.2539 59.1973 31.709 59.0762 32.0254 58.834C32.3418 58.5918 32.5 58.2617 32.5 57.8438C32.5 57.4258 32.3535 57.1035 32.0605 56.877C31.7676 56.6465 31.2363 56.4199 30.4668 56.1973ZM40.9004 56.0566H37.2031V59.0801H41.498V60H36.0781V51.4688H41.4395V52.3945H37.2031V55.1367H40.9004V56.0566ZM45.0293 59.0801H49.0723V60H43.8984V51.4688H45.0293V59.0801ZM52.4863 59.0801H56.5293V60H51.3555V51.4688H52.4863V59.0801ZM63.6348 56.0566H59.9375V59.0801H64.2324V60H58.8125V51.4688H64.1738V52.3945H59.9375V55.1367H63.6348V56.0566ZM69.7617 56.5488H67.7578V60H66.627V51.4688H69.4512C70.4121 51.4688 71.1504 51.6875 71.666 52.125C72.1855 52.5625 72.4453 53.1992 72.4453 54.0352C72.4453 54.5664 72.3008 55.0293 72.0117 55.4238C71.7266 55.8184 71.3281 56.1133 70.8164 56.3086L72.8203 59.9297V60H71.6133L69.7617 56.5488ZM67.7578 55.6289H69.4863C70.0449 55.6289 70.4883 55.4844 70.8164 55.1953C71.1484 54.9062 71.3145 54.5195 71.3145 54.0352C71.3145 53.5078 71.1562 53.1035 70.8398 52.8223C70.5273 52.541 70.0742 52.3984 69.4805 52.3945H67.7578V55.6289Z" fill="white"/>
</svg>
